# xmcd
#
# Track frame offsets: 
#        150
#        19282
#        34562
#        54297
#        69127
#        89490
#        109230
#        127797
#        145082
#        162800
#        181942
#        204907
#        228792
#        245795
#        266852
#        284082
#        308385
#
# Disc length: 4386 seconds
#
# Revision: 3
# Processed by: cddbd v1.5.2PL0 Copyright (c) Steve Scherf et al.
# Submitted via: ExactAudioCopyFreeDBPlugin 1.0
#
DISCID=e1112011
DTITLE=Various Artist - Malaco:  The Last Soul Company - A Thirty-Yea
DTITLE=r Retrospective [box set]
DYEAR=1999
DGENRE=Soul
TTITLE0=Little Milton - The Blues is Alright
TTITLE1=Johnnie Taylor - Lady, My Whole World is You
TTITLE2=Johnnie Taylor - This is Your Night
TTITLE3=Denise LaSalle - My Tu Tu
TTITLE4=Formula - Part Time Lover
TTITLE5=The Rose Brothers - I Get Off on You
TTITLE6=Bobby "Blue" Bland - Members Only
TTITLE7=Mosley and Johnson - Rock Me
TTITLE8=Johnnie Taylor - Wall to Wall
TTITLE9=Latimore - Sunshine Lady
TTITLE10=Little Milton - Annie Mae's Cafe
TTITLE11=Little Milton - Cheatin' is a Risky Business
TTITLE12=Bobby "Blue" Bland - Get Your Money Where You Spend Your Time
TTITLE13=Little Milton - Room 244
TTITLE14=Johnnie Taylor - Everything's Out in the Open
TTITLE15=Latimore - All You'll Ever Need
TTITLE16=Johnnie Taylor - I Found a Love
EXTD=
EXTT0=
EXTT1=
EXTT2=
EXTT3=
EXTT4=
EXTT5=
EXTT6=
EXTT7=
EXTT8=
EXTT9=
EXTT10=
EXTT11=
EXTT12=
EXTT13=
EXTT14=
EXTT15=
EXTT16=
PLAYORDER=
